<?xml version="1.0" standalone="no"?>
<!DOCTYPE svg PUBLIC "-//W3C//DTD SVG 20010904//EN"
 "http://www.w3.org/TR/2001/REC-SVG-20010904/DTD/svg10.dtd">
<svg version="1.0" xmlns="http://www.w3.org/2000/svg"
 width="621.000000pt" height="1161.000000pt" viewBox="0 0 621.000000 1161.000000"
 preserveAspectRatio="xMidYMid meet">

<g transform="translate(0.000000,1161.000000) scale(0.100000,-0.100000)"
fill="#000000" stroke="none">
<path d="M2700 11475 l0 -135 -135 0 -135 0 0 -135 0 -135 -135 0 -135 0 0
-270 0 -270 -135 0 -135 0 0 -135 0 -135 -405 0 -405 0 0 -405 0 -405 -405 0
-405 0 0 -135 0 -135 -135 0 -135 0 0 -135 0 -135 135 0 135 0 0 -270 0 -270
135 0 135 0 0 -135 0 -135 135 0 135 0 0 -135 0 -135 -135 0 -135 0 0 -405 0
-405 -135 0 -135 0 0 -135 0 -135 -135 0 -135 0 0 -135 0 -135 135 0 135 0 0
-135 0 -135 -135 0 -135 0 0 -135 0 -135 135 0 135 0 0 -135 0 -135 270 0 270
0 0 -135 0 -135 135 0 135 0 0 135 0 135 135 0 135 0 0 -675 0 -675 -135 0
-135 0 0 -405 0 -405 -135 0 -135 0 0 -405 0 -405 -135 0 -135 0 0 -135 0
-135 -135 0 -135 0 0 -135 0 -135 -135 0 -135 0 0 -135 0 -135 135 0 135 0 0
-135 0 -135 270 0 270 0 0 -135 0 -135 405 0 405 0 0 -135 0 -135 135 0 135 0
0 -135 0 -135 -270 0 -270 0 0 -135 0 -135 -135 0 -135 0 0 -270 0 -270 810 0
810 0 0 135 0 135 135 0 135 0 0 405 0 405 135 0 135 0 0 -405 0 -405 135 0
135 0 0 -135 0 -135 810 0 810 0 0 270 0 270 -135 0 -135 0 0 135 0 135 -270
0 -270 0 0 135 0 135 270 0 270 0 0 135 0 135 270 0 270 0 0 135 0 135 270 0
270 0 0 135 0 135 135 0 135 0 0 135 0 135 -135 0 -135 0 0 135 0 135 -135 0
-135 0 0 135 0 135 -135 0 -135 0 0 270 0 270 -135 0 -135 0 0 270 0 270 -135
0 -135 0 0 405 0 405 -135 0 -135 0 0 135 0 135 135 0 135 0 0 405 0 405 135
0 135 0 0 -135 0 -135 135 0 135 0 0 135 0 135 270 0 270 0 0 135 0 135 135 0
135 0 0 135 0 135 -135 0 -135 0 0 135 0 135 135 0 135 0 0 135 0 135 -135 0
-135 0 0 270 0 270 -135 0 -135 0 0 270 0 270 -135 0 -135 0 0 270 0 270 135
0 135 0 0 270 0 270 135 0 135 0 0 135 0 135 -135 0 -135 0 0 135 0 135 -540
0 -540 0 0 405 0 405 -405 0 -405 0 0 135 0 135 -135 0 -135 0 0 270 0 270
-135 0 -135 0 0 135 0 135 -135 0 -135 0 0 135 0 135 -135 0 -135 0 0 -135z
m270 -270 l0 -135 135 0 135 0 0 -270 0 -270 135 0 135 0 0 -540 0 -540 135 0
135 0 0 135 0 135 135 0 135 0 0 135 0 135 135 0 135 0 0 -270 0 -270 135 0
135 0 0 -135 0 -135 540 0 540 0 0 -135 0 -135 -135 0 -135 0 0 -135 0 -135
-945 0 -945 0 0 270 0 270 -135 0 -135 0 0 -135 0 -135 -135 0 -135 0 0 135 0
135 -405 0 -405 0 0 -135 0 -135 -135 0 -135 0 0 -135 0 -135 -675 0 -675 0 0
135 0 135 -135 0 -135 0 0 135 0 135 405 0 405 0 0 135 0 135 135 0 135 0 0
270 0 270 135 0 135 0 0 -135 0 -135 135 0 135 0 0 -135 0 -135 135 0 135 0 0
540 0 540 135 0 135 0 0 270 0 270 135 0 135 0 0 135 0 135 135 0 135 0 0
-135z m-540 -3510 l0 -135 135 0 135 0 0 -135 0 -135 405 0 405 0 0 135 0 135
135 0 135 0 0 135 0 135 270 0 270 0 0 -135 0 -135 135 0 135 0 0 -135 0 -135
135 0 135 0 0 -270 0 -270 -135 0 -135 0 0 -135 0 -135 -135 0 -135 0 0 -135
0 -135 -270 0 -270 0 0 135 0 135 -135 0 -135 0 0 135 0 135 -135 0 -135 0 0
135 0 135 -135 0 -135 0 0 -135 0 -135 -135 0 -135 0 0 -135 0 -135 -135 0
-135 0 0 -135 0 -135 -270 0 -270 0 0 135 0 135 -135 0 -135 0 0 135 0 135
-135 0 -135 0 0 270 0 270 135 0 135 0 0 135 0 135 135 0 135 0 0 135 0 135
270 0 270 0 0 -135z m540 -3780 l0 -135 135 0 135 0 0 135 0 135 405 0 405 0
0 -405 0 -405 135 0 135 0 0 -270 0 -270 135 0 135 0 0 -135 0 -135 135 0 135
0 0 -135 0 -135 135 0 135 0 0 -135 0 -135 135 0 135 0 0 -135 0 -135 -405 0
-405 0 0 -135 0 -135 -135 0 -135 0 0 270 0 270 -135 0 -135 0 0 -135 0 -135
-540 0 -540 0 0 -135 0 -135 -135 0 -135 0 0 135 0 135 -135 0 -135 0 0 -135
0 -135 -270 0 -270 0 0 270 0 270 -135 0 -135 0 0 -135 0 -135 -405 0 -405 0
0 135 0 135 135 0 135 0 0 135 0 135 135 0 135 0 0 135 0 135 135 0 135 0 0
135 0 135 135 0 135 0 0 270 0 270 135 0 135 0 0 405 0 405 405 0 405 0 0
-135z"/>
<path d="M1890 7425 l0 -135 -135 0 -135 0 0 -270 0 -270 135 0 135 0 0 -135
0 -135 270 0 270 0 0 135 0 135 135 0 135 0 0 270 0 270 -135 0 -135 0 0 135
0 135 -270 0 -270 0 0 -135z m540 -405 l0 -270 -135 0 -135 0 0 270 0 270 135
0 135 0 0 -270z"/>
<path d="M3780 7425 l0 -135 -135 0 -135 0 0 -270 0 -270 135 0 135 0 0 -135
0 -135 270 0 270 0 0 135 0 135 135 0 135 0 0 270 0 270 -135 0 -135 0 0 135
0 135 -270 0 -270 0 0 -135z m270 -405 l0 -270 -135 0 -135 0 0 270 0 270 135
0 135 0 0 -270z"/>
<path d="M2430 3510 l0 -270 135 0 135 0 0 -135 0 -135 135 0 135 0 0 -135 0
-135 135 0 135 0 0 135 0 135 135 0 135 0 0 135 0 135 135 0 135 0 0 270 0
270 -270 0 -270 0 0 -135 0 -135 -135 0 -135 0 0 135 0 135 -270 0 -270 0 0
-270z"/>
<path d="M2160 1755 l0 -135 135 0 135 0 0 135 0 135 -135 0 -135 0 0 -135z"/>
</g>
</svg>
